<svg xmlns="http://www.w3.org/2000/svg" viewBox="0 0 270.90625 90.296875"><g data-unit-id="example-crew" role="button" tabindex="0" aria-label="American crew 3, 2-2-7"><title>American crew 3, 2-2-7</title><g data-tier="far"><rect x="27.40625" y="22.890625" width="35.46875" height="35.46875" rx="3.546875" fill="#b9dcae" stroke="#0f1f0b" stroke-width="1.234375" data-face="front"/><g data-slot="glyph"><circle cx="39.25" cy="30.8125" r="4.203125" fill="#0f1f0b"/><path d="M32.796875 54.671875L34.765625 35.578125L43.75 35.578125L45.71875 54.671875Z" fill="#0f1f0b"/><circle cx="51.046875" cy="30.8125" r="4.203125" fill="#0f1f0b"/><path d="M44.59375 54.671875L46.546875 35.578125L55.53125 35.578125L57.5 54.671875Z" fill="#0f1f0b"/></g></g></g><g data-unit-id="example-crew" role="button" tabindex="0" aria-label="American crew 3, 2-2-7"><title>American crew 3, 2-2-7</title><g data-tier="mid"><rect x="117.71875" y="22.890625" width="35.46875" height="35.46875" rx="3.546875" fill="#b9dcae" stroke="#0f1f0b" stroke-width="1.234375" data-face="front"/><g data-slot="glyph"><circle cx="123.234375" cy="29.59375" r="1.46875" fill="#0f1f0b"/><path d="M121 37.875L121.671875 31.25L124.796875 31.25L125.46875 37.875Z" fill="#0f1f0b"/><circle cx="127.328125" cy="29.59375" r="1.46875" fill="#0f1f0b"/><path d="M125.078125 37.875L125.765625 31.25L128.890625 31.25L129.5625 37.875Z" fill="#0f1f0b"/></g><g data-slot="class"></g><g data-slot="fp"><text x="125.28125" y="52.484375" font-size="12.0625" font-family="sans-serif" text-anchor="middle" fill="#0f1f0b" font-weight="bold">2</text></g><g data-slot="range"><text x="135.453125" y="52.484375" font-size="12.0625" font-family="sans-serif" text-anchor="middle" fill="#0f1f0b">2</text></g><g data-slot="morale"><text x="145.625" y="52.484375" font-size="12.0625" font-family="sans-serif" text-anchor="middle" fill="#0f1f0b">7</text></g></g></g><g data-unit-id="example-crew" role="button" tabindex="0" aria-label="American crew 3, 2-2-7"><title>American crew 3, 2-2-7</title><g data-tier="near"><rect x="208.015625" y="22.890625" width="35.46875" height="35.46875" rx="3.546875" fill="#b9dcae" stroke="#0f1f0b" stroke-width="1.234375" data-face="front"/><g data-slot="glyph"><circle cx="213.53125" cy="29.59375" r="1.46875" fill="#0f1f0b"/><path d="M211.296875 37.875L211.96875 31.25L215.09375 31.25L215.78125 37.875Z" fill="#0f1f0b"/><circle cx="217.625" cy="29.59375" r="1.46875" fill="#0f1f0b"/><path d="M215.390625 37.875L216.0625 31.25L219.1875 31.25L219.875 37.875Z" fill="#0f1f0b"/></g><g data-slot="ident"><text x="225.75" y="35.484375" font-size="7.09375" font-family="sans-serif" text-anchor="middle" fill="#0f1f0b">3</text></g><g data-slot="class"></g><g data-slot="fp"><text x="215.578125" y="52.484375" font-size="12.0625" font-family="sans-serif" text-anchor="middle" fill="#0f1f0b" font-weight="bold">2</text></g><g data-slot="range"><text x="225.75" y="52.484375" font-size="12.0625" font-family="sans-serif" text-anchor="middle" fill="#0f1f0b">2</text></g><g data-slot="morale"><text x="235.921875" y="52.484375" font-size="12.0625" font-family="sans-serif" text-anchor="middle" fill="#0f1f0b">7</text></g></g></g></svg>
