<svg xmlns="http://www.w3.org/2000/svg" viewBox="0 0 270.90625 90.296875"><g data-unit-id="state-ce" role="button" tabindex="0" aria-label="German PzKpfw IVH fully tracked vehicle A, 12 MP, AF 8/3, MA 75LL fast turret traverse, facing east, turret facing north-east, crew exposed"><title>German PzKpfw IVH fully tracked vehicle A, 12 MP, AF 8/3, MA 75LL fast turret traverse, facing east, turret facing north-east, crew exposed</title><g data-tier="far"><rect x="27.40625" y="22.890625" width="35.46875" height="35.46875" rx="3.546875" fill="#a8cdea" stroke="#08192a" stroke-width="1.234375" data-face="front"/><g data-slot="glyph"><circle cx="45.15625" cy="40.640625" r="14.34375" fill="none" stroke="#08192a" stroke-width="0.890625" data-outline="circle"/><path d="M33.921875 32.78125L56.375 32.78125L56.375 35.578125L33.921875 35.578125Z" fill="#08192a"/><path d="M33.921875 45.6875L56.375 45.6875L56.375 48.5L33.921875 48.5Z" fill="#08192a"/><path d="M35.046875 36.140625L55.25 36.140625L55.25 45.125L35.046875 45.125Z" fill="#08192a"/><circle cx="44.03125" cy="40.640625" r="3.09375" fill="none" stroke="#08192a" stroke-width="1.40625"/><line x1="47.109375" y1="40.640625" x2="58.625" y2="40.640625" stroke="#08192a" stroke-width="1.6875" stroke-linecap="round"/></g><path d="M71.40625 40.640625L63.953125 45.25L63.953125 36.015625Z" fill="#08192a" data-facing="east"/><path d="M60.71875 13.6875L60.796875 22.75L52.8125 18.140625Z" fill="#ffffff" stroke="#08192a" stroke-width="1.421875" data-turret-facing="north-east"/></g></g><g data-unit-id="state-ce" role="button" tabindex="0" aria-label="German PzKpfw IVH fully tracked vehicle A, 12 MP, AF 8/3, MA 75LL fast turret traverse, facing east, turret facing north-east, crew exposed"><title>German PzKpfw IVH fully tracked vehicle A, 12 MP, AF 8/3, MA 75LL fast turret traverse, facing east, turret facing north-east, crew exposed</title><g data-tier="mid"><rect x="117.71875" y="22.890625" width="35.46875" height="35.46875" rx="3.546875" fill="#a8cdea" stroke="#08192a" stroke-width="1.234375" data-face="front"/><g data-slot="glyph"><circle cx="127.828125" cy="33.015625" r="7.171875" fill="none" stroke="#08192a" stroke-width="0.890625" data-outline="circle"/><path d="M122.203125 29.078125L133.4375 29.078125L133.4375 30.484375L122.203125 30.484375Z" fill="#08192a"/><path d="M122.203125 35.53125L133.4375 35.53125L133.4375 36.9375L122.203125 36.9375Z" fill="#08192a"/><path d="M122.765625 30.765625L132.875 30.765625L132.875 35.25L122.765625 35.25Z" fill="#08192a"/><circle cx="127.265625" cy="33.015625" r="1.546875" fill="none" stroke="#08192a" stroke-width="0.703125"/><line x1="128.8125" y1="33.015625" x2="134.5625" y2="33.015625" stroke="#08192a" stroke-width="0.84375" stroke-linecap="round"/></g><g data-slot="mp"><ellipse cx="143.078125" cy="33.015625" rx="7.328125" ry="5.609375" fill="#ffffff" data-shape="oval"/><text x="143.078125" y="35.484375" font-size="7.09375" font-family="sans-serif" text-anchor="middle" fill="#111111" font-weight="bold">12</text></g><g data-slot="ma"><text x="127.828125" y="50.75" font-size="7.09375" font-family="sans-serif" text-anchor="middle" fill="#08192a" font-weight="bold">75LL</text></g><g data-slot="afront"><text x="143.078125" y="50.375" font-size="6.03125" font-family="sans-serif" text-anchor="middle" fill="#08192a" font-weight="bold">8</text></g><path d="M161.703125 40.640625L154.25 45.25L154.25 36.015625Z" fill="#08192a" data-facing="east"/><path d="M151.015625 13.6875L151.109375 22.75L143.109375 18.140625Z" fill="#ffffff" stroke="#08192a" stroke-width="1.421875" data-turret-facing="north-east"/><g data-badge="CE"><rect x="115.9375" y="18.28125" width="13.0625" height="9.21875" rx="2.765625" fill="#08192a"/><text x="122.46875" y="25.25" font-size="6.734375" font-family="sans-serif" font-weight="bold" text-anchor="middle" fill="#ffffff">CE</text></g></g></g><g data-unit-id="state-ce" role="button" tabindex="0" aria-label="German PzKpfw IVH fully tracked vehicle A, 12 MP, AF 8/3, MA 75LL fast turret traverse, facing east, turret facing north-east, crew exposed"><title>German PzKpfw IVH fully tracked vehicle A, 12 MP, AF 8/3, MA 75LL fast turret traverse, facing east, turret facing north-east, crew exposed</title><g data-tier="near"><path d="M225.75 40.640625L302.5625 -3.703125L302.5625 84.984375Z" fill="#0b5c9e" fill-opacity="0.16" stroke="#0b5c9e" stroke-width="1.0625" stroke-dasharray="4.25 2.84375" pointer-events="none" data-covered-arc="east"/><path d="M225.75 40.640625L225.75 -37.40625L293.34375 1.609375Z" fill="#08192a" fill-opacity="0.16" stroke="#08192a" stroke-width="1.0625" stroke-dasharray="4.25 2.84375" pointer-events="none" data-turret-arc="north-east"/><rect x="208.015625" y="22.890625" width="35.46875" height="35.46875" rx="3.546875" fill="#a8cdea" stroke="#08192a" stroke-width="1.234375" data-face="front"/><g data-slot="id"><text x="214.3125" y="31.0625" font-size="5.328125" font-family="sans-serif" text-anchor="middle" fill="#08192a" font-weight="bold">A</text></g><g data-slot="glyph"><circle cx="225.75" cy="29.1875" r="3.578125" fill="none" stroke="#08192a" stroke-width="0.890625" data-outline="circle"/><path d="M222.9375 27.234375L228.5625 27.234375L228.5625 27.9375L222.9375 27.9375Z" fill="#08192a"/><path d="M222.9375 30.453125L228.5625 30.453125L228.5625 31.15625L222.9375 31.15625Z" fill="#08192a"/><path d="M223.21875 28.078125L228.28125 28.078125L228.28125 30.3125L223.21875 30.3125Z" fill="#08192a"/><circle cx="225.46875" cy="29.1875" r="0.765625" fill="none" stroke="#08192a" stroke-width="0.34375"/><line x1="226.234375" y1="29.1875" x2="229.125" y2="29.1875" stroke="#08192a" stroke-width="0.421875" stroke-linecap="round"/></g><g data-slot="mp"><ellipse cx="237.1875" cy="29.1875" rx="3.65625" ry="2.8125" fill="#ffffff" data-shape="oval"/><text x="237.1875" y="31.671875" font-size="7.09375" font-family="sans-serif" text-anchor="middle" fill="#111111" font-weight="bold">12</text></g><g data-slot="ma"><text x="218.125" y="39.3125" font-size="7.09375" font-family="sans-serif" text-anchor="middle" fill="#08192a" font-weight="bold">75LL</text></g><g data-slot="afront"><text x="229.5625" y="38.9375" font-size="6.03125" font-family="sans-serif" text-anchor="middle" fill="#08192a" font-weight="bold">8</text></g><g data-slot="aside"><text x="237.1875" y="38.9375" font-size="6.03125" font-family="sans-serif" text-anchor="middle" fill="#08192a" font-weight="bold">3</text></g><g data-slot="sa"></g><g data-slot="rof"><text x="221.9375" y="45.8125" font-size="3.90625" font-family="sans-serif" text-anchor="middle" fill="#08192a">1</text><rect x="220.21875" y="42.21875" width="3.4375" height="4.453125" fill="none" stroke="#08192a" stroke-width="0.3125" data-mark="box"/></g><g data-slot="bd"></g><g data-slot="ammo"><text x="237.1875" y="45.8125" font-size="3.90625" font-family="sans-serif" text-anchor="middle" fill="#08192a">A4 S7</text></g><g data-slot="mg"><text x="218.125" y="53.4375" font-size="3.90625" font-family="sans-serif" text-anchor="middle" fill="#08192a">2/4</text></g><g data-slot="pp"></g><g data-slot="tow"></g><path d="M252 40.640625L244.546875 45.25L244.546875 36.015625Z" fill="#08192a" data-facing="east"/><path d="M241.3125 13.6875L241.40625 22.75L233.421875 18.140625Z" fill="#ffffff" stroke="#08192a" stroke-width="1.421875" data-turret-facing="north-east"/><g data-badge="CE"><rect x="206.234375" y="18.28125" width="13.0625" height="9.21875" rx="2.765625" fill="#08192a"/><text x="212.765625" y="25.25" font-size="6.734375" font-family="sans-serif" font-weight="bold" text-anchor="middle" fill="#ffffff">CE</text></g></g></g></svg>
