<svg xmlns="http://www.w3.org/2000/svg" viewBox="0 0 270.90625 90.296875"><g data-unit-id="example-assault-gun" role="button" tabindex="0" aria-label="German StuG IIIB fully tracked vehicle B, 12 MP, AF 8/3, MA 75* non-turreted, facing south-east"><title>German StuG IIIB fully tracked vehicle B, 12 MP, AF 8/3, MA 75* non-turreted, facing south-east</title><g data-tier="far"><rect x="27.40625" y="22.890625" width="35.46875" height="35.46875" rx="1.78125" fill="#7b8c97" stroke="#0e1419" stroke-width="1.0625" data-face="front"/><g data-slot="glyph"><g transform="rotate(60 45.15625 40.640625)"><path d="M33.921875 32.78125L56.375 32.78125L56.375 35.578125L33.921875 35.578125Z" fill="#0e1419"/><path d="M33.921875 45.6875L56.375 45.6875L56.375 48.5L33.921875 48.5Z" fill="#0e1419"/><path d="M35.046875 36.140625L55.25 36.140625L55.25 45.125L35.046875 45.125Z" fill="#0e1419"/><circle cx="44.03125" cy="40.640625" r="3.09375" fill="none" stroke="#0e1419" stroke-width="1.40625"/><line x1="47.109375" y1="40.640625" x2="58.625" y2="40.640625" stroke="#0e1419" stroke-width="1.6875" stroke-linecap="round"/></g></g></g></g><g data-unit-id="example-assault-gun" role="button" tabindex="0" aria-label="German StuG IIIB fully tracked vehicle B, 12 MP, AF 8/3, MA 75* non-turreted, facing south-east"><title>German StuG IIIB fully tracked vehicle B, 12 MP, AF 8/3, MA 75* non-turreted, facing south-east</title><g data-tier="mid"><rect x="117.71875" y="22.890625" width="35.46875" height="35.46875" rx="1.78125" fill="#7b8c97" stroke="#0e1419" stroke-width="1.0625" data-face="front"/><g data-slot="glyph"><g transform="rotate(60 127.828125 33.015625)"><path d="M122.203125 29.078125L133.4375 29.078125L133.4375 30.484375L122.203125 30.484375Z" fill="#0e1419"/><path d="M122.203125 35.53125L133.4375 35.53125L133.4375 36.9375L122.203125 36.9375Z" fill="#0e1419"/><path d="M122.765625 30.765625L132.875 30.765625L132.875 35.25L122.765625 35.25Z" fill="#0e1419"/><circle cx="127.265625" cy="33.015625" r="1.546875" fill="none" stroke="#0e1419" stroke-width="0.703125"/><line x1="128.8125" y1="33.015625" x2="134.5625" y2="33.015625" stroke="#0e1419" stroke-width="0.84375" stroke-linecap="round"/></g></g><g data-slot="mp"><ellipse cx="143.078125" cy="33.015625" rx="7.328125" ry="5.609375" fill="#ffffff" data-shape="oval"/><text x="143.078125" y="35.484375" font-size="7.09375" font-family="sans-serif" text-anchor="middle" fill="#b22222" font-weight="bold">12</text></g><g data-slot="ma"><text x="120.90625" y="50.375" font-size="6.03125" font-family="sans-serif" text-anchor="start" fill="#0e1419" font-weight="bold">75*</text></g><g data-slot="afront"><circle cx="143.078125" cy="48.265625" r="7.328125" fill="#ffffff"/><text x="143.078125" y="50" font-size="4.96875" font-family="sans-serif" text-anchor="middle" fill="#111111" font-weight="bold">8</text><rect x="140.890625" y="45.4375" width="4.375" height="5.65625" fill="none" stroke="#111111" stroke-width="0.390625" data-mark="box"/></g></g></g><g data-unit-id="example-assault-gun" role="button" tabindex="0" aria-label="German StuG IIIB fully tracked vehicle B, 12 MP, AF 8/3, MA 75* non-turreted, facing south-east"><title>German StuG IIIB fully tracked vehicle B, 12 MP, AF 8/3, MA 75* non-turreted, facing south-east</title><g data-tier="near"><rect x="208.015625" y="22.890625" width="35.46875" height="35.46875" rx="1.78125" fill="#7b8c97" stroke="#0e1419" stroke-width="1.0625" data-face="front"/><g data-slot="id"><text x="213.546875" y="30.046875" font-size="4.609375" font-family="sans-serif" text-anchor="middle" fill="#0e1419" font-weight="bold">B</text><rect x="211.515625" y="25.796875" width="4.0625" height="5.25" fill="none" stroke="#0e1419" stroke-width="0.375" data-mark="box"/></g><g data-slot="glyph"><g transform="rotate(60 225.75 34.53125)"><path d="M219.015625 29.8125L232.484375 29.8125L232.484375 31.5L219.015625 31.5Z" fill="#0e1419"/><path d="M219.015625 37.5625L232.484375 37.5625L232.484375 39.25L219.015625 39.25Z" fill="#0e1419"/><path d="M219.6875 31.84375L231.8125 31.84375L231.8125 37.234375L219.6875 37.234375Z" fill="#0e1419"/><circle cx="225.078125" cy="34.53125" r="1.859375" fill="none" stroke="#0e1419" stroke-width="0.84375"/><line x1="226.921875" y1="34.53125" x2="233.828125" y2="34.53125" stroke="#0e1419" stroke-width="1.015625" stroke-linecap="round"/></g></g><g data-slot="mp"><ellipse cx="237.953125" cy="28.4375" rx="2.921875" ry="2.25" fill="#ffffff" data-shape="oval"/><text x="237.953125" y="30.921875" font-size="7.09375" font-family="sans-serif" text-anchor="middle" fill="#b22222" font-weight="bold">12</text></g><g data-slot="pp"></g><g data-slot="afront"><circle cx="237.953125" cy="34.53125" r="2.921875" fill="#ffffff"/><text x="237.953125" y="36.265625" font-size="4.96875" font-family="sans-serif" text-anchor="middle" fill="#111111" font-weight="bold">8</text><rect x="235.765625" y="31.703125" width="4.375" height="5.65625" fill="none" stroke="#111111" stroke-width="0.390625" data-mark="box"/></g><g data-slot="sa"></g><g data-slot="aside"><text x="237.953125" y="42.375" font-size="4.96875" font-family="sans-serif" text-anchor="middle" fill="#0e1419" font-weight="bold">3</text></g><g data-slot="ma"><text x="211.203125" y="48.84375" font-size="6.03125" font-family="sans-serif" text-anchor="start" fill="#0e1419" font-weight="bold">75*</text></g><g data-slot="rof"></g><g data-slot="bd"><text x="231.859375" y="47.984375" font-size="3.546875" font-family="sans-serif" text-anchor="middle" fill="#0e1419">B11</text></g><g data-slot="tow"></g><g data-slot="ammo"></g><g data-slot="ft"></g></g></g></svg>
