<svg xmlns="http://www.w3.org/2000/svg" viewBox="0 0 270.90625 90.296875"><g data-unit-id="state-broken" role="button" tabindex="0" aria-label="German 1st Line squad A, broken morale 7, broken, with light MG 3-6"><title>German 1st Line squad A, broken morale 7, broken, with light MG 3-6</title><g data-tier="far"><g data-attached-id="example-squad-lmg"></g><rect x="27.40625" y="22.890625" width="35.46875" height="35.46875" rx="1.78125" fill="#58646c" stroke="#0e1419" stroke-width="1.0625" data-face="broken"/><g data-slot="fig"><circle cx="34.140625" cy="31.28125" r="2.75" fill="#0e1419"/><path d="M38 28.53125L58.90625 29.625L58.90625 32.9375L38 34.03125Z" fill="#0e1419"/><circle cx="34.140625" cy="40.640625" r="2.75" fill="#0e1419"/><path d="M38 37.890625L58.90625 38.984375L58.90625 42.28125L38 43.390625Z" fill="#0e1419"/><circle cx="34.140625" cy="49.984375" r="2.75" fill="#0e1419"/><path d="M38 47.234375L58.90625 48.34375L58.90625 51.640625L38 52.75Z" fill="#0e1419"/></g></g></g><g data-unit-id="state-broken" role="button" tabindex="0" aria-label="German 1st Line squad A, broken morale 7, broken, with light MG 3-6"><title>German 1st Line squad A, broken morale 7, broken, with light MG 3-6</title><g data-tier="mid"><g data-attached-id="example-squad-lmg"><rect x="131.1875" y="51.5625" width="21.28125" height="21.28125" rx="1.0625" fill="#7b8c97" stroke="#0e1419" stroke-width="0.640625" data-face="front"/><g data-slot="label"><text x="141.828125" y="59.265625" font-size="4.6875" font-family="sans-serif" text-anchor="middle" fill="#0e1419" font-weight="bold">LMG</text></g><g data-slot="fp"><text x="135.734375" y="69.015625" font-size="6.390625" font-family="sans-serif" text-anchor="middle" fill="#0e1419" font-weight="bold">3</text></g><g data-slot="dash"><text x="141.828125" y="69.015625" font-size="6.390625" font-family="sans-serif" text-anchor="middle" fill="#0e1419">-</text></g><g data-slot="range"><text x="147.9375" y="69.015625" font-size="6.390625" font-family="sans-serif" text-anchor="middle" fill="#0e1419" font-weight="bold">6</text></g></g><rect x="117.71875" y="22.890625" width="35.46875" height="35.46875" rx="1.78125" fill="#58646c" stroke="#0e1419" stroke-width="1.0625" data-face="broken"/><g data-slot="fig"><circle cx="129.953125" cy="28.328125" r="1.375" fill="#0e1419"/><path d="M131.875 26.953125L142.328125 27.5L142.328125 29.15625L131.875 29.703125Z" fill="#0e1419"/><circle cx="129.953125" cy="33.015625" r="1.375" fill="#0e1419"/><path d="M131.875 31.625L142.328125 32.1875L142.328125 33.828125L131.875 34.390625Z" fill="#0e1419"/><circle cx="129.953125" cy="37.6875" r="1.375" fill="#0e1419"/><path d="M131.875 36.3125L142.328125 36.859375L142.328125 38.515625L131.875 39.0625Z" fill="#0e1419"/></g><g data-slot="bmorale"><text x="135.453125" y="52.734375" font-size="12.765625" font-family="sans-serif" text-anchor="middle" fill="#0e1419" font-weight="bold">7</text><rect x="129.828125" y="40.984375" width="11.234375" height="14.5625" fill="none" stroke="#0e1419" stroke-width="1.015625" data-mark="box"/></g></g></g><g data-unit-id="state-broken" role="button" tabindex="0" aria-label="German 1st Line squad A, broken morale 7, broken, with light MG 3-6"><title>German 1st Line squad A, broken morale 7, broken, with light MG 3-6</title><g data-tier="near"><g data-attached-id="example-squad-lmg"><rect x="221.5" y="51.5625" width="21.28125" height="21.28125" rx="1.0625" fill="#7b8c97" stroke="#0e1419" stroke-width="0.640625" data-face="front"/><g data-slot="label"><text x="232.140625" y="57.734375" font-size="4.6875" font-family="sans-serif" text-anchor="middle" fill="#0e1419" font-weight="bold">LMG</text></g><g data-slot="fp"><text x="226.03125" y="64.4375" font-size="6.390625" font-family="sans-serif" text-anchor="middle" fill="#0e1419" font-weight="bold">3</text></g><g data-slot="dash"><text x="232.140625" y="64.4375" font-size="6.390625" font-family="sans-serif" text-anchor="middle" fill="#0e1419">-</text></g><g data-slot="range"><text x="238.234375" y="64.4375" font-size="6.390625" font-family="sans-serif" text-anchor="middle" fill="#0e1419" font-weight="bold">6</text></g><g data-slot="bd"><text x="226.03125" y="69.578125" font-size="3.625" font-family="sans-serif" text-anchor="middle" fill="#0e1419">B12</text></g><g data-slot="rof"><text x="232.140625" y="69.640625" font-size="3.828125" font-family="sans-serif" text-anchor="middle" fill="#0e1419">1</text><rect x="230.453125" y="66.125" width="3.375" height="4.375" fill="none" stroke="#0e1419" stroke-width="0.3125" data-mark="box"/></g><g data-slot="pp"><text x="238.234375" y="69.578125" font-size="3.625" font-family="sans-serif" text-anchor="middle" fill="#0e1419">1PP</text></g></g><rect x="208.015625" y="22.890625" width="35.46875" height="35.46875" rx="1.78125" fill="#58646c" stroke="#0e1419" stroke-width="1.0625" data-face="broken"/><g data-slot="bpv"><text x="211.203125" y="32.703125" font-size="6.390625" font-family="sans-serif" text-anchor="start" fill="#0e1419">10</text></g><g data-slot="fig"><circle cx="212.515625" cy="40.953125" r="1.40625" fill="#0e1419"/><path d="M214.46875 39.546875L225.140625 40.109375L225.140625 41.796875L214.46875 42.359375Z" fill="#0e1419"/><circle cx="212.515625" cy="45.71875" r="1.40625" fill="#0e1419"/><path d="M214.46875 44.3125L225.140625 44.875L225.140625 46.5625L214.46875 47.125Z" fill="#0e1419"/><circle cx="212.515625" cy="50.484375" r="1.40625" fill="#0e1419"/><path d="M214.46875 49.09375L225.140625 49.65625L225.140625 51.328125L214.46875 51.890625Z" fill="#0e1419"/></g><g data-slot="bmorale"><text x="233.375" y="50.1875" font-size="12.765625" font-family="sans-serif" text-anchor="middle" fill="#0e1419" font-weight="bold">7</text><rect x="227.765625" y="38.4375" width="11.234375" height="14.5625" fill="none" stroke="#0e1419" stroke-width="1.015625" data-mark="box"/></g></g></g></svg>
